<?xml version="1.0" encoding="UTF-8" standalone="no" ?>
<!DOCTYPE svg PUBLIC "-//W3C//DTD SVG 1.1//EN" "http://www.w3.org/Graphics/SVG/1.1/DTD/svg11.dtd">
<svg xmlns="http://www.w3.org/2000/svg" xmlns:xlink="http://www.w3.org/1999/xlink" version="1.1" width="1080" height="1080" viewBox="0 0 1080 1080" xml:space="preserve">
<desc>Created with Fabric.js 5.2.4</desc>
<defs>
</defs>
<g transform="matrix(1 0 0 1 540 540)" id="e0d491d6-ae4a-4768-a66a-64ed34cdad3c"  >
</g>
<g transform="matrix(1 0 0 1 540 540)" id="d97f960a-f7ac-4b22-97f8-3e6a46159778"  >
<rect style="stroke: none; stroke-width: 1; stroke-dasharray: none; stroke-linecap: butt; stroke-dashoffset: 0; stroke-linejoin: miter; stroke-miterlimit: 4; fill: rgb(255,255,255); fill-rule: nonzero; opacity: 1; visibility: hidden;" vector-effect="non-scaling-stroke"  x="-540" y="-540" rx="0" ry="0" width="1080" height="1080" />
</g>
<g transform="matrix(16.74 0 0 16.74 570.29 585.09)"  >
<g style="" vector-effect="non-scaling-stroke"   >
		<g transform="matrix(1 0 0 1 0 0)"  >
<path style="stroke: none; stroke-width: 1; stroke-dasharray: none; stroke-linecap: butt; stroke-dashoffset: 0; stroke-linejoin: miter; stroke-miterlimit: 4; fill: rgb(0,191,111); fill-rule: nonzero; opacity: 1;" vector-effect="non-scaling-stroke"  transform=" translate(-7.5, -7.5)" d="M 12.047 14 L 2.953 14 C 1.8752346858770852 13.998898694297248 1.0016532980005346 13.125764608718638 1 12.048 L 1 2.952 C 1 1.876 1.876 1 2.953 1 L 12.046999999999999 1 C 13.124 1 14 1.876 14 2.952 L 14 12.048 C 13.998346701999466 13.125764608718637 13.124765314122914 13.998898694297248 12.047 14 Z M 2.953 2 C 2.4272908072004995 2.0005499034989733 2.00110182870556 2.426291674251526 2 2.952 L 2 12.048 C 2 12.573 2.427 13 2.953 13 L 12.046999999999999 13 C 12.572709192799499 12.999450096501027 12.998898171294439 12.573708325748473 12.999999999999998 12.048 L 12.999999999999998 2.952 C 12.999448124775006 2.426063200052361 12.572937089493927 1.9999997104536331 12.047 2 L 2.953 2 Z" stroke-linecap="round" />
</g>
		<g transform="matrix(1 0 0 1 0 0)"  >
<path style="stroke: none; stroke-width: 1; stroke-dasharray: none; stroke-linecap: butt; stroke-dashoffset: 0; stroke-linejoin: miter; stroke-miterlimit: 4; fill: rgb(0,191,111); fill-rule: nonzero; opacity: 1;" vector-effect="non-scaling-stroke"  transform=" translate(-7.5, -7.5)" d="M 5.888 11.745 C 5.63926048479749 11.745033167185424 5.4283210092614835 11.562218955054218 5.393 11.315999999999999 L 5.116 9.382 L 3.1839999999999997 9.106 C 2.9348026414761663 9.07425601659417 2.7480555310817367 8.862211074552308 2.7480555310817367 8.611 C 2.7480555310817367 8.359788925447692 2.9348026414761663 8.14774398340583 3.1839999999999997 8.116 L 5.116 7.84 L 5.393 5.907 C 5.431088810256593 5.6631081366404805 5.641151871630062 5.48330459236035 5.888 5.48330459236035 C 6.134848128369938 5.48330459236035 6.3449111897434065 5.6631081366404805 6.383 5.907 L 6.66 7.84 L 8.592 8.116 C 8.841197358523834 8.14774398340583 9.027944468918264 8.359788925447692 9.027944468918264 8.610999999999999 C 9.027944468918264 8.862211074552308 8.841197358523834 9.07425601659417 8.592 9.106 L 6.66 9.382 L 6.383 11.315999999999999 C 6.347276343309117 11.561998974272207 6.1365789968041895 11.744603341243144 5.888 11.745 Z M 9.888 7.968 C 9.639260484797491 7.968033167185425 9.428321009261484 7.785218955054219 9.393 7.539 L 9.214 6.286 L 7.961 6.106 C 7.714595841220047 6.070889308967672 7.531533679898329 5.85989308967672 7.531533679898329 5.611 C 7.531533679898329 5.362106910323279 7.714595841220047 5.151110691032327 7.961 5.116 L 9.214 4.936999999999999 L 9.393 3.6829999999999994 C 9.428110691032328 3.436595841220046 9.63910691032328 3.253533679898328 9.888000000000002 3.253533679898328 C 10.136893089676722 3.253533679898328 10.347889308967673 3.436595841220046 10.383000000000001 3.6829999999999994 L 10.563 4.936999999999999 L 11.816 5.116 C 12.062404158779954 5.151110691032327 12.245466320101672 5.362106910323279 12.245466320101672 5.611 C 12.245466320101672 5.85989308967672 12.062404158779954 6.070889308967672 11.816 6.106 L 10.563 6.286 L 10.383000000000001 7.539 C 10.347276343309117 7.7849989742722085 10.136578996804191 7.967603341243144 9.888000000000002 7.968 Z" stroke-linecap="round" />
</g>
</g>
</g>
<g transform="matrix(NaN NaN NaN NaN 0 0)"  >
<g style=""   >
</g>
</g>
</svg>